<svg width="57" height="49" viewBox="0 0 57 49" fill="none" xmlns="http://www.w3.org/2000/svg">
<g clip-path="url(#clip0_267_2420)">
<path d="M27.281 0.900057L0.0714119 47.6254C-0.130934 47.9677 0.119023 48.3926 0.523715 48.3926H55.8C56.2047 48.3926 56.4546 47.9677 56.2523 47.6254L29.0426 0.900057C28.6499 0.227325 27.6619 0.227325 27.2691 0.900057H27.281ZM18.8301 46.3744H4.04692C3.64223 46.3744 3.39227 45.9495 3.59462 45.6072L4.20166 44.5686L16.1758 23.9972L27.7095 4.1929C27.9119 3.85063 28.4118 3.85063 28.6141 4.1929L40.1479 23.9972L44.5876 31.6333L52.7291 45.6072C52.9314 45.9495 52.6815 46.3744 52.2768 46.3744H18.8301V46.3744Z" fill="white"/>
<path d="M49.4201 44.0964L49.0869 44.2853H49.5273L49.4201 44.0964Z" fill="white"/>
<path d="M48.7178 42.8928L46.2659 44.2855H46.7539L48.8369 43.0935L48.7178 42.8928Z" fill="white"/>
<path d="M48.0037 41.677L43.433 44.2853H43.933L48.1227 41.8894L48.0037 41.677Z" fill="white"/>
<path d="M47.3015 40.4614L40.6121 44.2854H41.1001L47.4205 40.6739L47.3015 40.4614Z" fill="white"/>
<path d="M46.5992 39.2458L37.7911 44.2854H38.2791L46.7182 39.4583L46.5992 39.2458Z" fill="white"/>
<path d="M45.885 38.0303L34.9583 44.2855H35.4463L46.004 38.2427L45.885 38.0303Z" fill="white"/>
<path d="M45.1828 36.8264L32.1374 44.2855H32.6254L45.3018 37.0271L45.1828 36.8264Z" fill="white"/>
<path d="M44.4686 35.6106L29.3164 44.2853H29.8044L44.5995 35.823L44.4686 35.6106Z" fill="white"/>
<path d="M43.8139 34.4775L26.7097 44.2853H27.1977L43.9449 34.69L43.8139 34.4775Z" fill="white"/>
<path d="M42.7189 32.5894L42.5879 32.377L21.782 44.2855H22.27L42.7189 32.5894Z" fill="white"/>
<path d="M42.3499 31.9756L20.8417 44.2854H21.3297L42.4808 32.1762L42.3499 31.9756Z" fill="white"/>
<path d="M42.1238 31.5625L19.8895 44.2854H20.3894L42.2428 31.7749L42.1238 31.5625Z" fill="white"/>
<path d="M41.8857 31.1611L18.9492 44.2853H19.4372L42.0047 31.3736L41.8857 31.1611Z" fill="white"/>
<path d="M41.6477 30.76L18.0089 44.2855H18.4969L41.7667 30.9725L41.6477 30.76Z" fill="white"/>
<path d="M41.4096 30.3586L17.0685 44.2854H17.5565L41.5405 30.5593L41.4096 30.3586Z" fill="white"/>
<path d="M41.1834 29.9456L16.1282 44.2854H16.6162L41.3024 30.158L41.1834 29.9456Z" fill="white"/>
<path d="M40.9454 29.5442L15.1879 44.2853H15.6759L41.0644 29.7566L40.9454 29.5442Z" fill="white"/>
<path d="M40.7073 29.1431L14.2476 44.2854H14.7356L40.8263 29.3555L40.7073 29.1431Z" fill="white"/>
<path d="M40.4693 28.73L13.3073 44.2854H13.7953L40.6002 28.9424L40.4693 28.73Z" fill="white"/>
<path d="M40.2312 28.3286L12.3669 44.2853H12.855L40.3622 28.5411L40.2312 28.3286Z" fill="white"/>
<path d="M40.0051 27.9275L11.4147 44.2855H11.9146L40.1241 28.1399L40.0051 27.9275Z" fill="white"/>
<path d="M39.767 27.5261L10.4744 44.2854H10.9624L39.8861 27.7386L39.767 27.5261Z" fill="white"/>
<path d="M39.5289 27.113L9.53406 44.2854H10.0221L39.648 27.3255L39.5289 27.113Z" fill="white"/>
<path d="M28.0071 30.76L38.2434 24.906L38.1125 24.6936L27.7571 30.6184L28.0071 30.76Z" fill="white"/>
<path d="M25.9004 31.9637L25.6504 31.822L8.24861 41.795L7.99866 42.2081L25.9004 31.9637Z" fill="white"/>
<path d="M27.531 30.4885L38.0054 24.4929L37.8864 24.2922L27.293 30.3586L27.531 30.4885Z" fill="white"/>
<path d="M24.7101 31.291L9.18892 40.1782L8.93896 40.5912L24.96 31.4326L24.7101 31.291Z" fill="white"/>
<path d="M26.5907 29.9573L37.5293 23.6902L37.4102 23.4778L26.3407 29.8156L26.5907 29.9573Z" fill="white"/>
<path d="M26.1146 29.686L37.3031 23.2891L37.1722 23.0767L25.8765 29.5443L26.1146 29.686Z" fill="white"/>
<path d="M23.7698 30.748L10.1292 38.5612L9.89117 38.9743L24.0197 30.8897L23.7698 30.748Z" fill="white"/>
<path d="M25.1743 29.143L36.827 22.4746L36.708 22.2622L24.9362 29.0013L25.1743 29.143Z" fill="white"/>
<path d="M22.8294 30.2053L11.0695 36.9444L10.8315 37.3575L23.0794 30.3469L22.8294 30.2053Z" fill="white"/>
<path d="M24.71 28.8717L36.589 22.0735L36.4699 21.8611L24.4601 28.73L24.71 28.8717Z" fill="white"/>
<path d="M21.8891 29.6741L12.0098 35.3274L11.7718 35.7405L22.1391 29.8157L21.8891 29.6741Z" fill="white"/>
<path d="M23.7697 28.3404L36.1248 21.259L35.9938 21.0583L23.5198 28.1987L23.7697 28.3404Z" fill="white"/>
<path d="M23.2937 28.0689L35.8867 20.8577L35.7677 20.6453L23.0556 27.9273L23.2937 28.0689Z" fill="white"/>
<path d="M20.9488 29.1311L12.9621 33.7104L12.7121 34.1235L21.1868 29.2727L20.9488 29.1311Z" fill="white"/>
<path d="M22.3534 27.5261L35.4106 20.0552L35.2916 19.8428L22.1034 27.3845L22.3534 27.5261Z" fill="white"/>
<path d="M20.0085 28.5884L13.9024 32.0937L13.6524 32.5068L20.2465 28.73L20.0085 28.5884Z" fill="white"/>
<path d="M21.8772 27.2545L35.1845 19.642L35.0535 19.4414L21.6392 27.1129L21.8772 27.2545Z" fill="white"/>
<path d="M19.0681 28.0571L14.8427 30.4766L14.5927 30.8897L19.3062 28.187L19.0681 28.0571Z" fill="white"/>
<path d="M20.9369 26.7236L34.7084 18.8396L34.5893 18.6272L20.6989 26.582L20.9369 26.7236Z" fill="white"/>
<path d="M20.4727 26.452L34.4703 18.4383L34.3513 18.2258L20.2227 26.3104L20.4727 26.452Z" fill="white"/>
<path d="M18.1279 27.5144L15.783 28.8481L15.5331 29.2729L18.3659 27.656L18.1279 27.5144Z" fill="white"/>
<path d="M19.5324 25.9093L34.0061 17.6241L33.8751 17.4116L19.2824 25.7677L19.5324 25.9093Z" fill="white"/>
<path d="M17.1757 26.9714L16.7233 27.2311L16.4734 27.656L17.4256 27.1131L17.1757 26.9714Z" fill="white"/>
<path d="M33.7681 17.2227L33.649 17.0103L18.8182 25.4961L19.0563 25.6377L33.7681 17.2227Z" fill="white"/>
<path d="M33.1729 16.1958L18.1398 24.8115L18.0089 25.0357L18.116 25.1065L33.2919 16.4082L33.1729 16.1958Z" fill="white"/>
<path d="M32.9348 15.7947L18.604 23.9973L18.3659 24.4222L33.0658 16.0071L32.9348 15.7947Z" fill="white"/>
<path d="M32.4706 14.9919L19.5443 22.3802L19.3062 22.8051L32.5897 15.1926L32.4706 14.9919Z" fill="white"/>
<path d="M32.2326 14.5789L20.0204 21.5776L19.7704 21.9907L32.3516 14.7913L32.2326 14.5789Z" fill="white"/>
<path d="M31.7565 13.7764L20.9607 19.9608L20.7108 20.3739L31.8874 13.9888L31.7565 13.7764Z" fill="white"/>
<path d="M31.5303 13.375L21.4368 19.1463L21.1868 19.5712L31.6493 13.5756L31.5303 13.375Z" fill="white"/>
<path d="M31.0542 12.5608L22.3772 17.5296L22.1272 17.9544L31.1733 12.7732L31.0542 12.5608Z" fill="white"/>
<path d="M30.8161 12.1594L22.8413 16.7269L22.6033 17.14L30.9471 12.3719L30.8161 12.1594Z" fill="white"/>
<path d="M30.3519 11.3452L23.7816 15.1102L23.5436 15.5232L30.471 11.5577L30.3519 11.3452Z" fill="white"/>
<path d="M30.1139 10.9438L24.2578 14.2957L24.0078 14.7206L30.2329 11.1563L30.1139 10.9438Z" fill="white"/>
<path d="M29.6378 10.1414L25.1981 12.6789L24.9481 13.1037L29.7687 10.342L29.6378 10.1414Z" fill="white"/>
<path d="M29.4116 9.72827L25.6742 11.8763L25.4242 12.2894L29.5306 9.94071L29.4116 9.72827Z" fill="white"/>
<path d="M28.9355 8.92554L26.6145 10.2592L26.3646 10.6723L29.0546 9.13798L28.9355 8.92554Z" fill="white"/>
<path d="M28.6975 8.51245L27.0787 9.44483L26.8406 9.86972L28.8284 8.72489L28.6975 8.51245Z" fill="white"/>
<path d="M28.2332 7.70996L28.019 7.82798L27.7809 8.25287L28.3523 7.9224L28.2332 7.70996Z" fill="white"/>
</g>
<defs>
<clipPath id="clip0_267_2420">
<rect width="56.3237" height="48" fill="white" transform="translate(0 0.392578)"/>
</clipPath>
</defs>
</svg>
