<svg width="178" height="48" viewBox="0 0 178 48" fill="none" xmlns="http://www.w3.org/2000/svg">
<path d="M3.79276 43.4799L26.5927 3.98752C26.7988 3.63209 27.3119 3.63209 27.516 3.98752L50.3159 43.4799C50.522 43.8353 50.2654 44.2791 49.8532 44.2791H4.25545C3.84324 44.2791 3.58876 43.8353 3.79276 43.4799Z" fill="#375477"/>
<path d="M40.7087 30.2239L37.0135 23.8241L27.0553 6.57642L17.097 23.8241L7.13872 41.0718L6.26593 42.586H8.01362H19.2969H22.7922H47.8446L40.7087 30.2239Z" fill="#375477"/>
<path d="M27.0553 10.0718L18.6113 24.6969L27.0553 29.5719L35.4993 24.6969L27.0553 10.0718Z" fill="#7AA2C7"/>
<path d="M17.7385 26.2112L10.1672 39.3241L11.6352 38.4766L25.3076 30.5815L17.7385 26.2112Z" fill="#4D73A5"/>
<path d="M11.0422 40.8363H22.3254L39.1945 31.0967L36.3743 26.2112L32.3236 28.5499L11.0422 40.8363Z" fill="#FFE100"/>
<path d="M40.0673 32.6111L25.8208 40.8364H44.8162L40.0673 32.6111Z" fill="#375477"/>
<path d="M40.7087 30.2239L37.0135 23.8241L27.0553 6.57642L17.097 23.8241L7.13872 41.0718L6.26593 42.586H8.01362H19.2969H22.7922H47.8446L40.7087 30.2239ZM40.0673 32.6109L44.8161 40.8362H25.8186L40.0673 32.6109ZM35.4993 24.6969L27.0553 29.5719L18.6112 24.6969L27.0553 10.0718L35.4993 24.6969ZM17.7384 26.2111L25.3076 30.5814L11.6352 38.4765L10.1672 39.3241L17.7384 26.2111ZM32.3236 28.5498L36.3742 26.2111L39.1945 31.0967L22.3253 40.8362H11.0421L32.3236 28.5498Z" fill="white"/>
<path d="M54.1706 29.1542L59.9701 16.3153C60.0266 16.2008 60.1222 16.1052 60.2946 16.1052H60.4858C60.6582 16.1052 60.7523 16.2008 60.8103 16.3153L66.5706 29.1542C66.685 29.4018 66.533 29.6495 66.2462 29.6495H65.4828C65.3104 29.6495 65.196 29.5351 65.1584 29.4394L63.7461 26.292H56.9747L55.5829 29.4394C55.5452 29.5351 55.4308 29.6495 55.2584 29.6495H54.4951C54.2098 29.6495 54.0562 29.4018 54.1706 29.1542ZM63.232 25.1102C62.2978 23.0302 61.3808 20.9329 60.4466 18.8529H60.2946L57.5092 25.1102H63.232Z" fill="#242D40"/>
<path d="M68.3826 27.6478C68.4782 27.5333 68.5738 27.4001 68.6694 27.2857C68.8606 27.038 69.0707 26.8844 69.3371 27.1133C69.4704 27.2277 70.8638 28.5631 72.5614 28.5631C74.1069 28.5631 75.1179 27.5898 75.1179 26.4643C75.1179 25.1477 73.9736 24.3655 71.7792 23.4502C69.6804 22.5348 68.4218 21.6758 68.4218 19.5018C68.4218 18.2039 69.4516 16.1067 72.4846 16.1067C74.3545 16.1067 75.7464 17.0801 75.7464 17.0801C75.8608 17.1381 76.0897 17.3669 75.8608 17.729C75.784 17.8434 75.7088 17.9766 75.632 18.0911C75.4596 18.3575 75.2699 18.4343 74.9643 18.2635C74.831 18.1867 73.6288 17.3857 72.4658 17.3857C70.4438 17.3857 69.8324 18.6836 69.8324 19.4845C69.8324 20.762 70.8058 21.5065 72.4078 22.1743C74.9831 23.2229 76.643 24.1963 76.643 26.4095C76.643 28.3939 74.7542 29.8438 72.5222 29.8438C70.2713 29.8438 68.7446 28.5271 68.497 28.2983C68.3449 28.1619 68.1537 28.0098 68.3826 27.6478Z" fill="#242D40"/>
<path d="M78.9314 16.7542C78.9314 16.5065 79.1226 16.2965 79.3891 16.2965H79.9424C80.1901 16.2965 80.4001 16.5065 80.4001 16.7542V22.1525L86.3517 16.4861C86.4285 16.3905 86.5993 16.2949 86.7138 16.2949H87.648C87.9912 16.2949 88.1825 16.6758 87.8768 16.9627L81.8484 22.5898L88.1621 29.057C88.2953 29.1903 88.2577 29.648 87.8376 29.648H86.8642C86.731 29.648 86.5586 29.5712 86.521 29.5147L80.397 23.1243V29.1903C80.397 29.4379 80.1869 29.648 79.9393 29.648H79.386C79.1195 29.648 78.9283 29.4379 78.9283 29.1903V16.7542H78.9314Z" fill="#242D40"/>
<path d="M97.225 16.3732C97.2626 16.2211 97.4163 16.1067 97.5683 16.1067H97.8739C98.0072 16.1067 98.1608 16.2023 98.1984 16.3167L101.976 26.828C102.014 26.828 102.034 26.828 102.072 26.828L105.791 16.3167C105.829 16.2023 105.982 16.1067 106.116 16.1067H106.421C106.573 16.1067 106.727 16.2211 106.764 16.3732L109.225 29.1917C109.282 29.4582 109.167 29.6494 108.882 29.6494H108.119C107.967 29.6494 107.813 29.5162 107.775 29.3829L106.078 19.5582C106.059 19.5582 106.022 19.5582 106.001 19.5582L102.492 29.6306C102.454 29.745 102.282 29.8406 102.167 29.8406H101.824C101.709 29.8406 101.537 29.745 101.499 29.6306L97.9507 19.5582C97.9319 19.5582 97.8928 19.5582 97.8739 19.5582L96.214 29.3829C96.1952 29.5162 96.0228 29.6494 95.8708 29.6494H95.1074C94.8206 29.6494 94.7061 29.4582 94.7641 29.1917L97.225 16.3732Z" fill="#242D40"/>
<path d="M111.799 16.6585C111.799 16.4672 111.951 16.2964 112.161 16.2964H119.677C119.887 16.2964 120.039 16.4688 120.039 16.6585V17.2118C120.039 17.403 119.887 17.5739 119.677 17.5739H113.268V22.2291H118.743C118.934 22.2291 119.105 22.4016 119.105 22.5912V23.1445C119.105 23.3546 118.933 23.5066 118.743 23.5066H113.268V28.3704H119.677C119.887 28.3704 120.039 28.5428 120.039 28.7325V29.2858C120.039 29.477 119.887 29.6479 119.677 29.6479H112.161C111.951 29.6479 111.799 29.4754 111.799 29.2858V16.6585Z" fill="#242D40"/>
<path d="M125.991 17.5756H122.671C122.461 17.5756 122.309 17.4031 122.309 17.2135V16.6602C122.309 16.4689 122.461 16.2981 122.671 16.2981H130.759C130.969 16.2981 131.121 16.4705 131.121 16.6602V17.2135C131.121 17.4047 130.969 17.5756 130.759 17.5756H127.439V29.2891C127.439 29.4803 127.267 29.6511 127.077 29.6511H126.353C126.162 29.6511 125.991 29.4787 125.991 29.2891V17.5756Z" fill="#242D40"/>
<path d="M133.602 16.6585C133.602 16.4672 133.775 16.2964 133.964 16.2964H134.709C134.919 16.2964 135.071 16.4688 135.071 16.6585V22.2292H142.816V16.6585C142.816 16.4672 142.968 16.2964 143.178 16.2964H143.922C144.113 16.2964 144.284 16.4688 144.284 16.6585V29.2873C144.284 29.4786 144.112 29.6494 143.922 29.6494H143.178C142.968 29.6494 142.816 29.477 142.816 29.2873V23.5066H135.071V29.2873C135.071 29.4786 134.919 29.6494 134.709 29.6494H133.964C133.773 29.6494 133.602 29.477 133.602 29.2873V16.6585Z" fill="#242D40"/>
<path d="M153.479 16.1052C157.294 16.1052 160.346 19.1758 160.346 22.991C160.346 26.8061 157.294 29.8391 153.479 29.8391C149.664 29.8391 146.631 26.8061 146.631 22.991C146.631 19.1774 149.664 16.1052 153.479 16.1052ZM153.479 28.5053C156.512 28.5053 159.01 26.0256 159.01 22.9926C159.01 19.9596 156.512 17.4407 153.479 17.4407C150.446 17.4407 147.966 19.958 147.966 22.9926C147.966 26.0256 150.446 28.5053 153.479 28.5053Z" fill="#242D40"/>
<path d="M162.636 16.6585C162.636 16.4672 162.788 16.2964 162.979 16.2964H167.252C170.934 16.2964 173.948 19.2918 173.948 22.9549C173.948 26.6556 170.934 29.651 167.252 29.651H162.979C162.788 29.651 162.636 29.4786 162.636 29.2889V16.6585ZM166.946 28.3343C170.075 28.3343 172.345 26.1023 172.345 22.9549C172.345 19.8263 170.075 17.5942 166.946 17.5942H164.084V28.3343H166.946Z" fill="#242D40"/>
<path d="M58.4779 35.6606C59.6817 35.6606 60.5516 36.0776 61.3635 36.7688C61.4591 36.8644 61.4701 37.0071 61.3761 37.1027L61.0547 37.424C60.9591 37.5431 60.8635 37.5306 60.7444 37.4115C60.1237 36.8754 59.2773 36.518 58.4669 36.518C56.5828 36.518 55.1408 38.1043 55.1408 39.9507C55.1408 41.7862 56.5828 43.3725 58.4669 43.3725C59.5045 43.3725 60.1127 42.9555 60.7444 42.479C60.8635 42.3834 60.9591 42.3959 61.0312 42.443L61.3886 42.7643C61.4842 42.8364 61.4607 43.0025 61.3761 43.0856C60.5657 43.8725 59.5406 44.2424 58.4794 44.2424C56.0953 44.2424 54.1752 42.3474 54.1752 39.9633C54.1752 37.5792 56.0938 35.6606 58.4779 35.6606Z" fill="#242D40"/>
<path d="M77.0175 35.6606C79.4016 35.6606 81.3092 37.5808 81.3092 39.9648C81.3092 42.3489 79.4016 44.244 77.0175 44.244C74.6334 44.244 72.7384 42.3489 72.7384 39.9648C72.7384 37.5808 74.6319 35.6606 77.0175 35.6606ZM77.0175 43.4101C78.9126 43.4101 80.4753 41.8599 80.4753 39.9648C80.4753 38.0698 78.9141 36.4961 77.0175 36.4961C75.1209 36.4961 73.5723 38.0698 73.5723 39.9648C73.5723 41.8599 75.1209 43.4101 77.0175 43.4101Z" fill="#242D40"/>
<path d="M94.2092 35.8284C94.2327 35.7327 94.3284 35.6606 94.424 35.6606H94.6152C94.6983 35.6606 94.7939 35.7202 94.8174 35.7923L97.178 42.3615C97.2015 42.3615 97.214 42.3615 97.2375 42.3615L99.5621 35.7923C99.5856 35.7202 99.6812 35.6606 99.7642 35.6606H99.9555C100.051 35.6606 100.147 35.7327 100.17 35.8284L101.708 43.8396C101.744 44.0057 101.672 44.1264 101.493 44.1264H101.017C100.921 44.1264 100.825 44.0433 100.802 43.9587L99.7407 37.819C99.7282 37.819 99.7047 37.819 99.6937 37.819L97.5009 44.1139C97.4774 44.186 97.3692 44.2455 97.2987 44.2455H97.0839C97.0118 44.2455 96.9052 44.186 96.8817 44.1139L94.6638 37.819C94.6513 37.819 94.6277 37.819 94.6168 37.819L93.5791 43.9587C93.5666 44.0418 93.46 44.1264 93.3644 44.1264H92.8879C92.7092 44.1264 92.6371 44.0073 92.6731 43.8396L94.2092 35.8284Z" fill="#242D40"/>
<path d="M113.678 36.007C113.678 35.8878 113.774 35.7812 113.906 35.7812H116.541C118.008 35.7812 119.212 36.9741 119.212 38.4161C119.212 39.8942 118.008 41.098 116.553 41.098H114.586V43.899C114.586 44.0182 114.479 44.1247 114.359 44.1247H113.906C113.774 44.1247 113.678 44.0182 113.678 43.899V36.007ZM116.479 40.2155C117.458 40.2155 118.291 39.4161 118.291 38.391C118.291 37.4255 117.458 36.6857 116.479 36.6857H114.584V40.214H116.479V40.2155Z" fill="#242D40"/>
<path d="M129.775 43.816L133.398 35.7923C133.434 35.7202 133.494 35.6606 133.601 35.6606H133.72C133.826 35.6606 133.886 35.7202 133.922 35.7923L137.522 43.816C137.594 43.9712 137.499 44.1264 137.32 44.1264H136.844C136.737 44.1264 136.665 44.0543 136.641 43.9947L135.759 42.0276H131.527L130.657 43.9947C130.633 44.0543 130.561 44.1264 130.455 44.1264H129.978C129.798 44.1248 129.702 43.9712 129.775 43.816ZM135.436 41.2878C134.851 39.9884 134.279 38.6764 133.696 37.377H133.601L131.861 41.2878H135.436Z" fill="#242D40"/>
<path d="M148.957 35.8754C148.957 35.7563 149.063 35.6606 149.184 35.6606H149.482L154.858 42.3599C154.871 42.3599 154.871 42.3599 154.882 42.3599V36.0055C154.882 35.8864 154.977 35.7798 155.109 35.7798H155.526C155.645 35.7798 155.753 35.8864 155.753 36.0055V44.0292C155.753 44.1483 155.647 44.244 155.526 44.244H155.311L149.839 37.413H149.827V43.8976C149.827 44.0167 149.731 44.1233 149.601 44.1233H149.184C149.065 44.1233 148.957 44.0167 148.957 43.8976V35.8754Z" fill="#242D40"/>
<path d="M170 40.1075L167.127 36.1262C167.031 35.971 167.127 35.7798 167.318 35.7798H167.877C167.96 35.7798 168.033 35.8393 168.069 35.8864L170.476 39.2125L172.884 35.8864C172.92 35.8393 172.99 35.7798 173.075 35.7798H173.635C173.826 35.7798 173.921 35.971 173.826 36.1262L170.917 40.0965V43.8991C170.917 44.0183 170.81 44.1248 170.689 44.1248H170.224C170.092 44.1248 169.998 44.0183 169.998 43.8991V40.1075H170Z" fill="#242D40"/>
<path d="M99.4147 4.36203H97.7548C97.6498 4.36203 97.573 4.27582 97.573 4.18021V3.90277C97.573 3.80716 97.6498 3.72095 97.7548 3.72095H101.799C101.904 3.72095 101.981 3.80716 101.981 3.90277V4.18021C101.981 4.27582 101.904 4.36203 101.799 4.36203H100.139V10.218C100.139 10.3136 100.053 10.3998 99.9571 10.3998H99.595C99.4994 10.3998 99.4132 10.3136 99.4132 10.218V4.36203H99.4147Z" fill="#242D40"/>
<path d="M110.851 3.90424C110.851 3.80862 110.937 3.72241 111.033 3.72241H111.404C111.509 3.72241 111.586 3.80862 111.586 3.90424V6.68958H115.459V3.90424C115.459 3.80862 115.536 3.72241 115.641 3.72241H116.012C116.108 3.72241 116.194 3.80862 116.194 3.90424V10.2179C116.194 10.3135 116.108 10.3997 116.012 10.3997H115.641C115.536 10.3997 115.459 10.3135 115.459 10.2179V7.32753H111.586V10.2179C111.586 10.3135 111.509 10.3997 111.404 10.3997H111.033C110.937 10.3997 110.851 10.3135 110.851 10.2179V3.90424Z" fill="#242D40"/>
<path d="M125.958 3.90424C125.958 3.80862 126.035 3.72241 126.14 3.72241H129.898C130.003 3.72241 130.08 3.80862 130.08 3.90424V4.18167C130.08 4.27729 130.003 4.3635 129.898 4.3635H126.693V6.69115H129.43C129.525 6.69115 129.612 6.77735 129.612 6.87297V7.15041C129.612 7.25542 129.525 7.33223 129.43 7.33223H126.693V9.7649H129.898C130.003 9.7649 130.08 9.85111 130.08 9.94672V10.2242C130.08 10.3198 130.003 10.406 129.898 10.406H126.14C126.035 10.406 125.958 10.3198 125.958 10.2242V3.90424Z" fill="#242D40"/>
<path d="M90.4851 7.52834H54.4527C54.263 7.52834 54.1094 7.37473 54.1094 7.18507C54.1094 6.99541 54.263 6.8418 54.4527 6.8418H90.4851C90.6747 6.8418 90.8283 6.99541 90.8283 7.18507C90.8299 7.37316 90.6763 7.52834 90.4851 7.52834Z" fill="#242D40"/>
<path d="M173.86 7.52834H137.828C137.638 7.52834 137.485 7.37473 137.485 7.18507C137.485 6.99541 137.638 6.8418 137.828 6.8418H173.86C174.05 6.8418 174.204 6.99541 174.204 7.18507C174.204 7.37316 174.05 7.52834 173.86 7.52834Z" fill="#242D40"/>
</svg>
